<?xml version="1.0" standalone="no"?>
<!DOCTYPE svg PUBLIC "-//W3C//DTD SVG 20010904//EN"
 "http://www.w3.org/TR/2001/REC-SVG-20010904/DTD/svg10.dtd">
<svg version="1.0" xmlns="http://www.w3.org/2000/svg"
 width="330.000000pt" height="280.000000pt" viewBox="0 0 330.000000 280.000000"
 preserveAspectRatio="xMidYMid meet">

<g transform="translate(0.000000,280.000000) scale(0.100000,-0.100000)"
fill="#000000" stroke="none">
<path d="M2555 2470 c2 -14 9 -51 14 -82 8 -45 17 -64 43 -88 18 -16 36 -30
40 -30 4 0 -13 39 -36 88 -23 48 -48 98 -54 112 l-11 25 4 -25z"/>
<path d="M2449 2243 l-24 -28 28 24 c25 23 32 31 24 31 -2 0 -14 -12 -28 -27z"/>
<path d="M2354 2138 l-29 -33 33 29 c30 28 37 36 29 36 -2 0 -16 -15 -33 -32z"/>
<path d="M2511 2148 c2 -2 28 -25 58 -53 l53 -50 -32 53 c-25 41 -37 52 -58
52 -14 0 -23 -1 -21 -2z"/>
<path d="M2415 2100 c-3 -6 1 -7 9 -4 18 7 21 14 7 14 -6 0 -13 -4 -16 -10z"/>
<path d="M2333 2065 c-24 -7 -43 -11 -43 -8 0 3 -6 0 -14 -6 -10 -9 -11 -22
-3 -61 5 -28 13 -49 18 -48 8 3 99 125 99 133 0 7 -9 6 -57 -10z"/>
<path d="M2074 1830 c-120 -133 -130 -141 -183 -156 -31 -9 -85 -24 -121 -34
-36 -10 -189 -51 -340 -90 -151 -39 -295 -78 -320 -85 -25 -8 -73 -19 -108
-26 -59 -11 -63 -13 -58 -35 l6 -24 -118 0 c-65 0 -121 -2 -124 -5 -3 -3 49
-59 116 -123 66 -65 122 -122 123 -127 1 -5 11 -12 22 -17 16 -5 66 13 196 72
96 44 179 80 184 80 5 0 17 -21 28 -46 16 -40 21 -45 44 -40 14 3 50 8 78 12
48 6 58 13 153 102 l100 96 -3 -113 -4 -114 47 -1 c25 0 44 2 42 5 -2 4 10 71
27 150 30 142 31 145 72 181 23 21 48 35 55 33 7 -3 10 0 7 5 -3 5 10 23 29
40 19 17 67 81 108 143 l73 112 0 72 c0 40 -1 73 -2 73 -1 0 -59 -63 -129
-140z"/>
<path d="M2222 1745 c0 -16 2 -22 5 -12 2 9 2 23 0 30 -3 6 -5 -1 -5 -18z"/>
<path d="M2243 1480 c0 -25 2 -35 4 -22 2 12 2 32 0 45 -2 12 -4 2 -4 -23z"/>
<path d="M1910 1451 c0 -6 4 -13 10 -16 6 -3 7 1 4 9 -7 18 -14 21 -14 7z"/>
<path d="M2822 1385 c0 -16 2 -22 5 -12 2 9 2 23 0 30 -3 6 -5 -1 -5 -18z"/>
<path d="M664 1338 l-19 -23 23 19 c21 18 27 26 19 26 -2 0 -12 -10 -23 -22z"/>
<path d="M2831 1304 c0 -11 3 -14 6 -6 3 7 2 16 -1 19 -3 4 -6 -2 -5 -13z"/>
<path d="M2570 1286 c-15 -39 -12 -46 6 -13 9 16 13 31 10 34 -3 3 -10 -6 -16
-21z"/>
<path d="M584 1268 l-29 -33 33 29 c30 28 37 36 29 36 -2 0 -16 -15 -33 -32z"/>
<path d="M2852 1140 c0 -14 2 -19 5 -12 2 6 2 18 0 25 -3 6 -5 1 -5 -13z"/>
<path d="M1449 1123 c-13 -16 -12 -17 4 -4 16 13 21 21 13 21 -2 0 -10 -8 -17
-17z"/>
<path d="M1780 1116 c0 -2 8 -10 18 -17 15 -13 16 -12 3 4 -13 16 -21 21 -21
13z"/>
<path d="M1395 1100 l-30 -8 27 -1 c15 0 30 4 33 9 3 6 5 9 3 9 -2 -1 -16 -5
-33 -9z"/>
<path d="M1018 1093 c7 -3 16 -2 19 1 4 3 -2 6 -13 5 -11 0 -14 -3 -6 -6z"/>
<path d="M958 1083 c7 -3 16 -2 19 1 4 3 -2 6 -13 5 -11 0 -14 -3 -6 -6z"/>
<path d="M1273 1083 c9 -2 25 -2 35 0 9 3 1 5 -18 5 -19 0 -27 -2 -17 -5z"/>
<path d="M1148 1073 c6 -2 18 -2 25 0 6 3 1 5 -13 5 -14 0 -19 -2 -12 -5z"/>
<path d="M1810 1076 c0 -2 8 -10 18 -17 15 -13 16 -12 3 4 -13 16 -21 21 -21
13z"/>
<path d="M1058 1063 c6 -2 18 -2 25 0 6 3 1 5 -13 5 -14 0 -19 -2 -12 -5z"/>
<path d="M978 1053 c6 -2 18 -2 25 0 6 3 1 5 -13 5 -14 0 -19 -2 -12 -5z"/>
<path d="M1865 1010 c10 -11 20 -20 23 -20 3 0 -3 9 -13 20 -10 11 -20 20 -23
20 -3 0 3 -9 13 -20z"/>
<path d="M2872 980 c0 -14 2 -19 5 -12 2 6 2 18 0 25 -3 6 -5 1 -5 -13z"/>
<path d="M2877 900 c3 -11 7 -20 9 -20 2 0 4 9 4 20 0 11 -4 20 -9 20 -5 0 -7
-9 -4 -20z"/>
<path d="M2000 897 c0 -9 -5 -17 -12 -17 -11 0 -8 -98 10 -315 6 -81 8 -69 12
120 3 116 2 214 -2 220 -5 5 -8 2 -8 -8z"/>
</g>
</svg>
